<svg id="Capa_1" data-name="Capa 1" xmlns="http://www.w3.org/2000/svg" viewBox="0 0 239.76 604.41"><title>ii</title><path d="M519.74,322c.89,26.86-18.8,48.35-50.14,48.35-27.76,0-47.46-21.49-47.46-48.35,0-27.76,20.6-49.25,49.25-49.25C500.94,272.79,519.74,294.28,519.74,322ZM432,877.21V443.82h78.79V877.21Z" transform="translate(-422.14 -272.79)"/><path d="M661.87,322c.89,26.86-18.8,48.35-50.14,48.35-27.76,0-47.46-21.49-47.46-48.35,0-27.76,20.6-49.25,49.25-49.25C643.07,272.79,661.87,294.28,661.87,322ZM574.12,877.21V443.82h78.8V877.21Z" transform="translate(-422.14 -272.79)"/></svg>