<svg id="Capa_1" data-name="Capa 1" xmlns="http://www.w3.org/2000/svg" viewBox="0 0 834.3 1235.07"><defs><style>.cls-1{fill:none;stroke:#000;stroke-miterlimit:10;stroke-width:2.84px;}</style></defs><title>soporte silla</title><path class="cls-1" d="M302.65,341.9s12.19,43.5,44.18,63c52.36,31.91,90.46,18,102.91,19.64s19,14.72,19,14.72,26.18,28.64,22.91,66.28-7.36,89.18-49.09,144.81S299.38,826.26,275.65,852.44,175,967,161.92,994.81s-29.45,78.13-4.91,112.09c29.82,41.24,85.91,31.09,85.91,31.09s31.09-11.46,55.64-49.09S407.38,955.53,407.38,955.53s78.54-85.9,114.54-126.81S626.65,687.17,653.65,627.44,701.92,490,681.47,425.35c-26.72-84.43-56.55-109-79-127.63-36.41-30.28-111.68-63-111.68-63s-22.11-21.36-45-27.82c-21.78-6.15-33.51-6.19-46.23-5.73-3.37.12-72.81-20.45-94.09-31.09s-60.19-36.79-91.22-34.87c-41.32,2.55-61,35.69-63.82,46.33-6.37,23.66-8.68,66.22-4.8,79.72,7.13,24.84,46.52,49.55,64.52,53.64S302.65,341.9,302.65,341.9Z"/><circle class="cls-1" cx="252.88" cy="239.22" r="14.17" transform="translate(-38.04 430.37) rotate(-76.72)"/><circle class="cls-1" cx="559.69" cy="366.85" r="14.17" transform="translate(93.62 847.07) rotate(-79.1)"/><circle class="cls-1" cx="513.88" cy="717.85" r="14.17" transform="translate(-302.84 1053.05) rotate(-76.72)"/><circle class="cls-1" cx="233.24" cy="1063.13" r="14.17" transform="translate(-389.09 170.18) rotate(-22.5)"/></svg>